<svg viewBox="0 0 24 24" xmlns="http://www.w3.org/2000/svg" role="img" aria-labelledby="spotify-logo" height="24"><title id="spotify-logo">Spotify</title><path fill="#222" d="M12 3a9 9 0 0 0-9 9 9 9 0 0 0 9 9 9 9 0 0 0 9-9 9 9 0 0 0-9-9Zm3.369 13.167c-.358-.196-.73-.404-1.093-.551-1.954-.795-4.015-.842-6.046-.466-.286.053-.84.217-1.095.126a.556.556 0 0 1-.12-.983c.147-.1.405-.122.536-.152 2.77-.631 5.697-.461 8.198.957.176.1.294.193.355.278.345.482-.203 1.081-.735.79Zm.858-2.435c-2.682-1.555-6.016-1.825-8.986-1.01-.816.223-1.217-1.078-.356-1.348a11.47 11.47 0 0 1 2.495-.466c2.596-.21 5.195.29 7.473 1.573.975.548.261 1.765-.627 1.25Zm1.668-2.658c-.387.073-.588-.126-.907-.287-2.134-1.077-4.485-1.372-6.854-1.332-1.033.018-2.062.16-3.084.425-.256.067-.44.092-.554.077-.499-.067-.8-.57-.678-1.06.096-.38.41-.534.794-.637.763-.204 1.57-.345 2.423-.423 3.01-.273 6.398.141 9.07 1.644.718.404.624 1.436-.21 1.593Z"></path></svg>